<svg width="888" height="214" xmlns="http://www.w3.org/2000/svg" xmlns:xlink="http://www.w3.org/1999/xlink" xml:space="preserve" overflow="hidden"><defs><clipPath id="clip0"><rect x="1768" y="1162" width="888" height="214"/></clipPath></defs><g clip-path="url(#clip0)" transform="translate(-1768 -1162)"><text fill="#5460ED" font-family="Ethnocentric Rg,Ethnocentric Rg_MSFontService,sans-serif" font-weight="400" font-size="83" transform="matrix(1 0 0 1 1817.83 1265)">G</text><text fill="#5460ED" font-family="Ethnocentric Rg,Ethnocentric Rg_MSFontService,sans-serif" font-weight="400" font-size="83" transform="matrix(1 0 0 1 1899.5 1265)">r</text><text fill="#5460ED" font-family="Ethnocentric Rg,Ethnocentric Rg_MSFontService,sans-serif" font-weight="400" font-size="83" transform="matrix(1 0 0 1 1987.94 1265)">E</text><text fill="#5460ED" font-family="Ethnocentric Rg,Ethnocentric Rg_MSFontService,sans-serif" font-weight="400" font-size="83" transform="matrix(1 0 0 1 2062.03 1265)">E</text><text fill="#5460ED" font-family="Ethnocentric Rg,Ethnocentric Rg_MSFontService,sans-serif" font-weight="400" font-size="83" transform="matrix(1 0 0 1 2134.12 1265)">N</text><text fill="#5460ED" font-family="Ethnocentric Rg,Ethnocentric Rg_MSFontService,sans-serif" font-weight="400" font-size="83" transform="matrix(1 0 0 1 2206.2 1265)">S</text><text fill="#5460ED" font-family="Ethnocentric Rg,Ethnocentric Rg_MSFontService,sans-serif" font-weight="400" font-size="83" transform="matrix(1 0 0 1 2286.56 1265)">C</text><text fill="#5460ED" font-family="Ethnocentric Rg,Ethnocentric Rg_MSFontService,sans-serif" font-weight="400" font-size="83" transform="matrix(1 0 0 1 2358.65 1265)">A</text><text fill="#5460ED" font-family="Ethnocentric Rg,Ethnocentric Rg_MSFontService,sans-serif" font-weight="400" font-size="83" transform="matrix(1 0 0 1 2452.55 1265)">P</text><text fill="#5460ED" font-family="Ethnocentric Rg,Ethnocentric Rg_MSFontService,sans-serif" font-weight="400" font-size="83" transform="matrix(1 0 0 1 2536.18 1265)">E</text><text fill="#5460ED" font-family="RACING HARD,RACING HARD_MSFontService,sans-serif" font-weight="400" font-size="83" transform="matrix(1 0 0 1 1976.18 1306)">SERVICES</text></g></svg>