<svg width="2804" height="1069" xmlns="http://www.w3.org/2000/svg" xmlns:xlink="http://www.w3.org/1999/xlink" xml:space="preserve" overflow="hidden"><defs><clipPath id="clip0"><rect x="798" y="703" width="2804" height="1069"/></clipPath></defs><g clip-path="url(#clip0)" transform="translate(-798 -703)"><path d="M2657.13 703 3573.59 703 3363.93 977.286 2631.88 977.286C2594.08 976.957 2565.94 982.354 2547.47 993.477 2528.99 1004.6 2519.79 1023.42 2519.86 1049.95 2519.79 1076.54 2528.99 1095.62 2547.47 1107.21 2565.94 1118.79 2594.08 1124.45 2631.88 1124.19L3206.21 1124.19C3335.15 1124.19 3433.24 1148.23 3500.48 1196.31 3567.71 1244.4 3601.54 1316.55 3601.97 1412.78 3603.22 1521.71 3568.01 1606.29 3496.33 1666.5 3424.66 1726.71 3309.02 1757.26 3149.41 1758.14L2223.37 1758.14 2223.11 1758.55 798 1772 867.529 1653.56 867.529 703.972 1663.41 703.972C1680.21 705.141 1684.03 706.35 1678.7 707.7L1673.72 708.546 2203.1 708.546 2026.72 937.416 1572.62 937.416C1497.32 938.548 1435.68 958.698 1387.69 997.865 1339.7 1037.03 1314.91 1088.42 1313.32 1152.04 1314.67 1216.68 1338.96 1267.75 1386.21 1305.27 1433.46 1342.79 1495.59 1361.94 1572.62 1362.74L1905.63 1362.74 1905.63 1234.9 1450.21 1234.9 1613.42 1038.94 2176.77 1038.94 2176.77 1485.45 2396.57 1482.88 2393.97 1487.01 3174.66 1487.01C3213.15 1487.24 3241.48 1481.25 3259.66 1469.05 3277.84 1456.84 3286.85 1437.03 3286.68 1409.62 3286.85 1382.96 3277.84 1363.61 3259.66 1351.57 3241.48 1339.52 3213.15 1333.6 3174.66 1333.8L2600.33 1333.8C2465.18 1332.52 2365.32 1304.74 2300.74 1250.44 2236.17 1196.15 2204.11 1123 2204.57 1030.99 2203.42 930.381 2238.83 850.875 2310.8 792.472 2382.77 734.07 2498.21 704.245 2657.13 703Z" fill="#5460ED" fill-rule="evenodd"/></g></svg>